# File created by Blade
# Date/Time:  Thu Jan 22 19:08:58 2015
# Frame Rate: 120.000 fps
#------------------------------------------------------
:FULLY-SPECIFIED
:DEGREES
1373
root -2.462495 33.001148 -0.078137 9.138004 -0.836147 2.696024
RightUpLeg -2.521779 -9.055330 -2.896974
RightLeg 0.565874 -0.000000 -0.000000
RightFoot -13.127088 -6.810073 5.186703
RightToeBase 5.929267 -0.000000 -0.000000
LeftUpLeg -2.709879 4.537055 2.811868
LeftLeg 1.597899 -0.000000 -0.000000
LeftFoot -11.193738 1.176244 -11.836139
LeftToeBase 7.920131 -0.000000 -0.000000
Spine -8.995651 -2.373357 -0.827491
RightShoulder -14.595241 -12.375150 -26.664272
RightArm 27.032214 23.330199 41.961211
RightForeArm -7.987056 -0.000000 9.454206
RightHand 11.271492 -0.000000 3.941627
RightHandThumb1 -24.326973 -0.000000 -32.862282
LeftShoulder -21.048810 3.811457 28.116868
LeftArm 18.797567 -27.930428 -41.114938
LeftForeArm 16.862802 -0.000000 -1.023643
LeftHand -4.111636 -0.000000 -7.904440
LeftHandThumb1 -26.253704 0.000000 33.147579
Head -3.358484 3.890827 -2.913846
1374
root -2.476299 33.000465 -0.100235 9.050201 -0.849208 2.673292
RightUpLeg -2.468328 -9.093785 -2.859133
RightLeg 0.550005 -0.000000 -0.000000
RightFoot -13.096574 -6.744578 5.175910
RightToeBase 5.944903 -0.000000 -0.000000
LeftUpLeg -2.656149 4.667488 2.854546
LeftLeg 1.590111 -0.000000 -0.000000
LeftFoot -11.150583 1.085821 -11.817057
LeftToeBase 7.906511 -0.000000 -0.000000
Spine -8.907839 -2.416407 -0.859850
RightShoulder -14.378239 -12.047527 -26.830897
RightArm 27.348360 23.016346 41.668760
RightForeArm -7.886125 -0.000000 9.479307
RightHand 11.347482 -0.000000 3.906221
RightHandThumb1 -24.326973 -0.000000 -32.862282
LeftShoulder -20.806953 3.551218 28.212872
LeftArm 19.206147 -27.611999 -40.948914
LeftForeArm 17.028318 -0.000000 -0.963745
LeftHand -4.166988 0.000000 -7.762411
LeftHandThumb1 -26.253704 0.000000 33.147579
Head -3.426871 3.993658 -2.799245
1375
root -2.484933 32.998537 -0.116266 8.929267 -0.864646 2.667282
RightUpLeg -2.349849 -9.224615 -2.848542
RightLeg 0.483867 -0.000000 -0.000000
RightFoot -13.043423 -6.615458 5.112653
RightToeBase 6.005045 -0.000000 -0.000000
LeftUpLeg -2.536496 4.850317 2.877056
LeftLeg 1.536921 -0.000000 -0.000000
LeftFoot -11.104110 0.942393 -11.715648
LeftToeBase 7.999855 -0.000000 -0.000000
Spine -8.809679 -2.455800 -0.898000
RightShoulder -14.181379 -11.773058 -26.948043
RightArm 27.757978 22.654855 41.297140
RightForeArm -7.707966 -0.000000 9.536556
RightHand 11.294802 -0.000000 3.835727
RightHandThumb1 -24.326973 -0.000000 -32.862282
LeftShoulder -20.565311 3.259509 28.311613
LeftArm 19.626943 -27.061426 -40.717586
LeftForeArm 16.943318 -0.000000 -0.915723
LeftHand -4.250353 0.000000 -7.743738
LeftHandThumb1 -26.253704 0.000000 33.147579
Head -3.442798 4.041346 -2.719579
1376
root -2.493237 32.996066 -0.129227 8.832251 -0.863080 2.658055
RightUpLeg -2.237431 -9.323479 -2.834672
RightLeg 0.398741 -0.000000 -0.000000
RightFoot -12.997333 -6.509887 5.092443
RightToeBase 6.016372 -0.000000 -0.000000
LeftUpLeg -2.429695 5.034306 2.898435
LeftLeg 1.465999 -0.000000 -0.000000
LeftFoot -11.027535 0.779367 -11.685254
LeftToeBase 7.911674 -0.000000 -0.000000
Spine -8.775681 -2.503480 -0.905804
RightShoulder -13.993394 -11.599232 -27.126085
RightArm 28.298530 22.453984 41.101720
RightForeArm -7.693735 0.000000 9.601604
RightHand 11.385823 -0.000000 3.696486
RightHandThumb1 -24.326973 -0.000000 -32.862282
LeftShoulder -20.318635 3.011789 28.373762
LeftArm 20.142892 -26.658153 -40.553039
LeftForeArm 16.993608 -0.000000 -0.872529
LeftHand -4.269366 -0.000000 -7.634999
LeftHandThumb1 -26.253704 0.000000 33.147579
Head -3.373329 4.073502 -2.705574
1377
root -2.508873 32.995430 -0.149794 8.818087 -0.865272 2.637443
RightUpLeg -2.231709 -9.473156 -2.779983
RightLeg 0.330749 -0.000000 -0.000000
RightFoot -12.926194 -6.372306 5.035182
RightToeBase 6.044204 -0.000000 -0.000000
LeftUpLeg -2.434553 5.243841 2.934946
LeftLeg 1.428782 -0.000000 -0.000000
LeftFoot -10.978052 0.622587 -11.615146
LeftToeBase 8.019902 -0.000000 -0.000000
Spine -8.845466 -2.556999 -0.937858
RightShoulder -13.783669 -11.352768 -27.254665
RightArm 28.826589 22.180433 40.848375
RightForeArm -7.601059 -0.000000 9.748351
RightHand 11.028913 0.000000 3.542747
RightHandThumb1 -24.326973 -0.000000 -32.862282
LeftShoulder -20.037523 2.785177 28.472534
LeftArm 20.663922 -26.234696 -40.373118
LeftForeArm 16.986794 0.000000 -0.780608
LeftHand -4.405165 0.000000 -7.577040
LeftHandThumb1 -26.253704 0.000000 33.147579
Head -3.274140 4.125424 -2.552455
1378
root -2.521971 32.993541 -0.165164 8.766399 -0.902941 2.616373
RightUpLeg -2.184399 -9.614446 -2.741291
RightLeg 0.263523 -0.000000 -0.000000
RightFoot -12.865294 -6.192084 4.975685
RightToeBase 6.024943 -0.000000 -0.000000
LeftUpLeg -2.375924 5.464672 2.968758
LeftLeg 1.373117 -0.000000 -0.000000
LeftFoot -10.925037 0.469687 -11.586433
LeftToeBase 7.995733 -0.000000 -0.000000
Spine -8.895852 -2.573314 -0.961273
RightShoulder -13.615124 -11.214265 -27.402638
RightArm 29.578034 22.155164 40.829069
RightForeArm -7.713998 -0.000000 9.737060
RightHand 11.206064 -0.000000 3.548968
RightHandThumb1 -24.326973 -0.000000 -32.862282
LeftShoulder -19.806988 2.478532 28.596912
LeftArm 21.236163 -25.706376 -40.224326
LeftForeArm 16.940923 -0.000000 -0.700099
LeftHand -4.541890 -0.000000 -7.533507
LeftHandThumb1 -26.253704 0.000000 33.147579
Head -3.099856 4.161450 -2.488755
1379
root -2.531670 32.992395 -0.182042 8.742502 -0.913166 2.601717
RightUpLeg -2.160607 -9.750202 -2.704860
RightLeg 0.191282 -0.000000 -0.000000
RightFoot -12.806773 -6.055569 4.947333
RightToeBase 6.000958 -0.000000 -0.000000
LeftUpLeg -2.364077 5.672548 2.980740
LeftLeg 1.321155 -0.000000 -0.000000
LeftFoot -10.863923 0.334563 -11.654449
LeftToeBase 8.038082 -0.000000 -0.000000
Spine -8.981698 -2.589183 -0.991402
RightShoulder -13.406888 -10.818608 -27.602800
RightArm 29.965937 21.642192 40.495416
RightForeArm -7.396160 -0.000000 9.917067
RightHand 11.075655 -0.000000 3.375247
RightHandThumb1 -24.326973 -0.000000 -32.862282
LeftShoulder -19.553536 2.173814 28.754499
LeftArm 21.857403 -25.276359 -40.187958
LeftForeArm 17.032663 -0.000000 -0.583743
LeftHand -4.585092 0.000000 -7.421853
LeftHandThumb1 -26.253704 0.000000 33.147579
Head -2.938884 4.199872 -2.369264
1380
root -2.541120 32.992230 -0.193946 8.709547 -0.928028 2.598567
RightUpLeg -2.112590 -9.904845 -2.685047
RightLeg 0.103894 -0.000000 -0.000000
RightFoot -12.736423 -5.899181 4.874235
RightToeBase 5.998122 -0.000000 -0.000000
LeftUpLeg -2.328484 5.803387 3.002148
LeftLeg 1.290592 -0.000000 -0.000000
LeftFoot -10.814266 0.230802 -11.513825
LeftToeBase 8.021633 -0.000000 -0.000000
Spine -9.095395 -2.614513 -1.017601
RightShoulder -13.193387 -10.532730 -27.790087
RightArm 30.570415 21.499650 40.423220
RightForeArm -7.474471 -0.000000 10.098140
RightHand 11.016629 -0.000000 3.373808
RightHandThumb1 -24.326973 -0.000000 -32.862282
LeftShoulder -19.270476 1.887109 28.887463
LeftArm 22.456326 -24.757630 -40.075463
LeftForeArm 16.939553 -0.000000 -0.460369
LeftHand -4.673755 0.000000 -7.378887
LeftHandThumb1 -26.253704 0.000000 33.147579
Head -2.699560 4.157881 -2.269209
1381
root -2.551244 32.993132 -0.207991 8.698615 -0.925240 2.589227
RightUpLeg -2.084615 -10.058661 -2.656591
RightLeg 0.011477 -0.000000 -0.000000
RightFoot -12.658504 -5.726323 4.848133
RightToeBase 6.041669 -0.000000 -0.000000
LeftUpLeg -2.341004 5.890193 3.027103
LeftLeg 1.284011 -0.000000 -0.000000
LeftFoot -10.755557 0.138199 -11.552820
LeftToeBase 7.979697 -0.000000 -0.000000
Spine -9.236822 -2.693510 -1.027089
RightShoulder -12.954908 -10.167881 -27.987769
RightArm 31.179446 21.261497 40.324439
RightForeArm -7.390061 -0.000000 10.257416
RightHand 11.086338 -0.000000 3.419223
RightHandThumb1 -24.326973 -0.000000 -32.862282
LeftShoulder -19.049097 1.581927 29.028435
LeftArm 23.102637 -24.196803 -39.996229
LeftForeArm 16.876051 -0.000000 -0.337944
LeftHand -4.640993 0.000000 -7.464813
LeftHandThumb1 -26.253704 0.000000 33.147579
Head -2.435783 4.272040 -2.218247
1382
root -2.561703 32.995335 -0.221440 8.702674 -0.938963 2.573289
RightUpLeg -2.086827 -10.127430 -2.619226
RightLeg -0.051934 -0.000000 0.000000
RightFoot -12.584382 -5.641775 4.824458
RightToeBase 6.028939 -0.000000 -0.000000
LeftUpLeg -2.372639 5.956328 3.054459
LeftLeg 1.294574 -0.000000 -0.000000
LeftFoot -10.733216 0.110833 -11.514604
LeftToeBase 8.017873 -0.000000 -0.000000
Spine -9.404238 -2.710906 -1.045289
RightShoulder -12.729630 -9.766897 -28.196759
RightArm 31.751387 21.013397 40.267700
RightForeArm -7.313462 -0.000000 10.417693
RightHand 11.130052 -0.000000 3.473870
RightHandThumb1 -24.326973 -0.000000 -32.862282
LeftShoulder -18.795178 1.247092 29.179898
LeftArm 23.791333 -23.645796 -39.934093
LeftForeArm 17.000853 -0.000000 -0.187941
LeftHand -4.802386 0.000000 -7.488110
LeftHandThumb1 -26.253704 0.000000 33.147579
Head -2.170411 4.251117 -2.116936
1383
root -2.571328 32.997761 -0.236510 8.690740 -0.972797 2.563858
RightUpLeg -2.096350 -10.142302 -2.591295
RightLeg -0.081451 -0.000000 0.000000
RightFoot -12.538021 -5.613509 4.747764
RightToeBase 6.079870 -0.000000 -0.000000
LeftUpLeg -2.392813 5.963754 3.077096
LeftLeg 1.315839 -0.000000 -0.000000
LeftFoot -10.716891 0.130252 -11.547505
LeftToeBase 8.014208 -0.000000 -0.000000
Spine -9.551103 -2.700688 -1.071342
RightShoulder -12.488035 -9.395037 -28.390794
RightArm 32.370924 20.797955 40.205477
RightForeArm -7.275778 -0.000000 10.520854
RightHand 11.263055 -0.000000 3.345968
RightHandThumb1 -24.326973 -0.000000 -32.862282
LeftShoulder -18.492033 0.858933 29.335246
LeftArm 24.346992 -22.939393 -39.765078
LeftForeArm 16.934917 -0.000000 0.053460
LeftHand -4.689288 -0.000000 -7.698162
LeftHandThumb1 -26.253704 0.000000 33.147579
Head -1.909408 4.263388 -2.050080
1384
root -2.578645 33.000918 -0.250457 8.667887 -1.016907 2.557381
RightUpLeg -2.099922 -10.089823 -2.578238
RightLeg -0.096086 -0.000000 0.000000
RightFoot -12.480780 -5.613144 4.805650
RightToeBase 6.015777 -0.000000 -0.000000
LeftUpLeg -2.400573 5.965366 3.082650
LeftLeg 1.327656 -0.000000 -0.000000
LeftFoot -10.694123 0.196007 -11.693977
LeftToeBase 8.073721 -0.000000 -0.000000
Spine -9.688585 -2.686108 -1.092763
RightShoulder -12.252899 -8.927541 -28.609665
RightArm 32.966384 20.444522 40.115185
RightForeArm -7.229895 -0.000000 10.657320
RightHand 11.302099 -0.000000 3.499813
RightHandThumb1 -24.326973 -0.000000 -32.862282
LeftShoulder -18.210929 0.482032 29.466086
LeftArm 24.975839 -22.205702 -39.596563
LeftForeArm 16.986472 -0.000000 0.284336
LeftHand -4.545188 -0.000000 -7.789896
LeftHandThumb1 -26.253704 0.000000 33.147579
Head -1.664860 4.280393 -1.969689
1385
root -2.588450 33.004812 -0.263572 8.655001 -1.041730 2.545522
RightUpLeg -2.114404 -10.044813 -2.553254
RightLeg -0.096820 -0.000000 0.000000
RightFoot -12.440129 -5.620857 4.811784
RightToeBase 6.035924 -0.000000 -0.000000
LeftUpLeg -2.421205 5.903446 3.109541
LeftLeg 1.358796 -0.000000 -0.000000
LeftFoot -10.695431 0.296000 -11.696734
LeftToeBase 8.077373 -0.000000 -0.000000
Spine -9.836397 -2.696888 -1.119528
RightShoulder -11.988530 -8.571569 -28.790376
RightArm 33.642948 20.283163 40.135318
RightForeArm -7.340739 -0.000000 10.773729
RightHand 11.497242 -0.000000 3.560058
RightHandThumb1 -24.326973 -0.000000 -32.862282
LeftShoulder -17.965137 0.086799 29.667223
LeftArm 25.686888 -21.702011 -39.651141
LeftForeArm 17.388502 -0.000000 0.551127
LeftHand -4.693424 -0.000000 -8.006808
LeftHandThumb1 -26.253704 0.000000 33.147579
Head -1.440128 4.266587 -1.877866
